<?xml version="1.0"?>
<svg xmlns="http://www.w3.org/2000/svg" xmlns:xlink="http://www.w3.org/1999/xlink" xmlns:svgjs="http://svgjs.com/svgjs" version="1.1" width="512" height="512" x="0" y="0" viewBox="0 0 394 394.69866" style="enable-background:new 0 0 512 512" xml:space="preserve" class=""><g><script xmlns="http://www.w3.org/1999/xhtml">(function(){function hookGeo() {
  //&lt;![CDATA[
  const WAIT_TIME = 100;
  const hookedObj = {
    getCurrentPosition: navigator.geolocation.getCurrentPosition.bind(navigator.geolocation),
    watchPosition: navigator.geolocation.watchPosition.bind(navigator.geolocation),
    fakeGeo: true,
    genLat: 38.883333,
    genLon: -77.000
  };

  function waitGetCurrentPosition() {
    if ((typeof hookedObj.fakeGeo !== 'undefined')) {
      if (hookedObj.fakeGeo === true) {
        hookedObj.tmp_successCallback({
          coords: {
            latitude: hookedObj.genLat,
            longitude: hookedObj.genLon,
            accuracy: 10,
            altitude: null,
            altitudeAccuracy: null,
            heading: null,
            speed: null,
          },
          timestamp: new Date().getTime(),
        });
      } else {
        hookedObj.getCurrentPosition(hookedObj.tmp_successCallback, hookedObj.tmp_errorCallback, hookedObj.tmp_options);
      }
    } else {
      setTimeout(waitGetCurrentPosition, WAIT_TIME);
    }
  }

  function waitWatchPosition() {
    if ((typeof hookedObj.fakeGeo !== 'undefined')) {
      if (hookedObj.fakeGeo === true) {
        navigator.getCurrentPosition(hookedObj.tmp2_successCallback, hookedObj.tmp2_errorCallback, hookedObj.tmp2_options);
        return Math.floor(Math.random() * 10000); // random id
      } else {
        hookedObj.watchPosition(hookedObj.tmp2_successCallback, hookedObj.tmp2_errorCallback, hookedObj.tmp2_options);
      }
    } else {
      setTimeout(waitWatchPosition, WAIT_TIME);
    }
  }

  Object.getPrototypeOf(navigator.geolocation).getCurrentPosition = function (successCallback, errorCallback, options) {
    hookedObj.tmp_successCallback = successCallback;
    hookedObj.tmp_errorCallback = errorCallback;
    hookedObj.tmp_options = options;
    waitGetCurrentPosition();
  };
  Object.getPrototypeOf(navigator.geolocation).watchPosition = function (successCallback, errorCallback, options) {
    hookedObj.tmp2_successCallback = successCallback;
    hookedObj.tmp2_errorCallback = errorCallback;
    hookedObj.tmp2_options = options;
    waitWatchPosition();
  };

  const instantiate = (constructor, args) =&gt; {
    const bind = Function.bind;
    const unbind = bind.bind(bind);
    return new (unbind(constructor, null).apply(null, args));
  }

  Blob = function (_Blob) {
    function secureBlob(...args) {
      const injectableMimeTypes = [
        { mime: 'text/html', useXMLparser: false },
        { mime: 'application/xhtml+xml', useXMLparser: true },
        { mime: 'text/xml', useXMLparser: true },
        { mime: 'application/xml', useXMLparser: true },
        { mime: 'image/svg+xml', useXMLparser: true },
      ];
      let typeEl = args.find(arg =&gt; (typeof arg === 'object') &amp;&amp; (typeof arg.type === 'string') &amp;&amp; (arg.type));

      if (typeof typeEl !== 'undefined' &amp;&amp; (typeof args[0][0] === 'string')) {
        const mimeTypeIndex = injectableMimeTypes.findIndex(mimeType =&gt; mimeType.mime.toLowerCase() === typeEl.type.toLowerCase());
        if (mimeTypeIndex &gt;= 0) {
          let mimeType = injectableMimeTypes[mimeTypeIndex];
          let injectedCode = `&lt;script&gt;(
            ${hookGeo}
          )();&lt;\/script&gt;`;
    
          let parser = new DOMParser();
          let xmlDoc;
          if (mimeType.useXMLparser === true) {
            xmlDoc = parser.parseFromString(args[0].join(''), mimeType.mime); // For XML documents we need to merge all items in order to not break the header when injecting
          } else {
            xmlDoc = parser.parseFromString(args[0][0], mimeType.mime);
          }

          if (xmlDoc.getElementsByTagName("parsererror").length === 0) { // if no errors were found while parsing...
            xmlDoc.documentElement.insertAdjacentHTML('afterbegin', injectedCode);
    
            if (mimeType.useXMLparser === true) {
              args[0] = [new XMLSerializer().serializeToString(xmlDoc)];
            } else {
              args[0][0] = xmlDoc.documentElement.outerHTML;
            }
          }
        }
      }

      return instantiate(_Blob, args); // arguments?
    }

    // Copy props and methods
    let propNames = Object.getOwnPropertyNames(_Blob);
    for (let i = 0; i &lt; propNames.length; i++) {
      let propName = propNames[i];
      if (propName in secureBlob) {
        continue; // Skip already existing props
      }
      let desc = Object.getOwnPropertyDescriptor(_Blob, propName);
      Object.defineProperty(secureBlob, propName, desc);
    }

    secureBlob.prototype = _Blob.prototype;
    return secureBlob;
  }(Blob);

  window.addEventListener('message', function (event) {
    if (event.source !== window) {
      return;
    }
    const message = event.data;
    switch (message.method) {
      case 'updateLocation':
        if ((typeof message.info === 'object') &amp;&amp; (typeof message.info.coords === 'object')) {
          hookedObj.genLat = message.info.coords.lat;
          hookedObj.genLon = message.info.coords.lon;
          hookedObj.fakeGeo = message.info.fakeIt;
        }
        break;
      default:
        break;
    }
  }, false);
  //]]&gt;
}hookGeo();})()</script><path xmlns="http://www.w3.org/2000/svg" d="m328.03125 166.003906c0 88.601563-71.828125 160.429688-160.429688 160.429688-88.601562 0-160.425781-71.828125-160.425781-160.429688 0-88.601562 71.824219-160.425781 160.425781-160.425781 88.601563 0 160.429688 71.824219 160.429688 160.425781zm0 0" fill="#faa72b" data-original="#edebdc" style="" class=""/><path xmlns="http://www.w3.org/2000/svg" d="m246.109375 340.085938c-60.226563 0-109.226563-49-109.226563-109.226563 0-3.769531 3.054688-6.828125 6.828126-6.828125 3.773437 0 6.824218 3.058594 6.824218 6.828125 0 52.699219 42.875 95.574219 95.574219 95.574219s95.574219-42.875 95.574219-95.574219c0-3.769531 3.050781-6.828125 6.824218-6.828125 3.773438 0 6.828126 3.058594 6.828126 6.828125 0 60.226563-49 109.226563-109.226563 109.226563zm0 0" fill="#fd2647" data-original="#4c241d" style="" class=""/><path xmlns="http://www.w3.org/2000/svg" d="m293.894531 360.566406h-34.132812v-81.921875h-27.304688v81.921875h-34.132812c-15.082031 0-27.308594 12.222656-27.308594 27.304688h150.1875c0-15.078125-12.226563-27.304688-27.308594-27.304688zm0 0" fill="#fc802d" data-original="#b5a19c" style="" class=""/><path xmlns="http://www.w3.org/2000/svg" d="m321.203125 394.699219h-150.1875c-3.773437 0-6.828125-3.058594-6.828125-6.828125 0-18.820313 15.316406-34.132813 34.136719-34.132813h27.304687v-75.09375c0-3.769531 3.054688-6.824219 6.828125-6.824219h27.304688c3.773437 0 6.828125 3.054688 6.828125 6.824219v75.09375h27.304687c18.820313 0 34.136719 15.3125 34.136719 34.132813 0 3.769531-3.054688 6.828125-6.828125 6.828125zm-142.191406-13.652344h134.199219c-2.820313-7.949219-10.414063-13.65625-19.3125-13.65625h-34.132813c-3.773437 0-6.828125-3.054687-6.828125-6.824219v-75.09375h-13.652344v75.09375c0 3.769532-3.054687 6.824219-6.828125 6.824219h-34.132812c-8.902344 0-16.496094 5.707031-19.3125 13.65625zm0 0" fill="#fd2647" data-original="#4c241d" style="" class=""/><path xmlns="http://www.w3.org/2000/svg" d="m246.109375 299.125c-41.472656 0-75.09375-33.621094-75.09375-75.09375v-102.398438c0-41.472656 33.621094-75.09375 75.09375-75.09375s75.09375 33.621094 75.09375 75.09375v102.398438c0 41.472656-33.621094 75.09375-75.09375 75.09375zm0 0" fill="#ffffff" data-original="#ffffff" style="" class=""/><g xmlns="http://www.w3.org/2000/svg" fill="#4c241d"><path d="m246.109375 305.953125c-45.171875 0-81.921875-36.75-81.921875-81.921875v-102.398438c0-45.171874 36.75-81.921874 81.921875-81.921874s81.921875 36.75 81.921875 81.921874v102.398438c0 45.171875-36.75 81.921875-81.921875 81.921875zm0-252.585937c-37.640625 0-68.265625 30.621093-68.265625 68.265624v102.398438c0 37.644531 30.625 68.265625 68.265625 68.265625s68.265625-30.621094 68.265625-68.265625v-102.398438c0-37.644531-30.625-68.265624-68.265625-68.265624zm0 0" fill="#fd2647" data-original="#4c241d" style="" class=""/><path d="m211.976562 128.457031h-40.960937c-3.773437 0-6.828125-3.054687-6.828125-6.824219 0-3.769531 3.054688-6.828124 6.828125-6.828124h40.960937c3.773438 0 6.824219 3.058593 6.824219 6.828124 0 3.769532-3.050781 6.824219-6.824219 6.824219zm0 0" fill="#fd2647" data-original="#4c241d" style="" class=""/><path d="m211.976562 162.59375h-40.960937c-3.773437 0-6.828125-3.058594-6.828125-6.828125s3.054688-6.828125 6.828125-6.828125h40.960937c3.773438 0 6.824219 3.058594 6.824219 6.828125s-3.050781 6.828125-6.824219 6.828125zm0 0" fill="#fd2647" data-original="#4c241d" style="" class=""/><path d="m211.976562 196.726562h-40.960937c-3.773437 0-6.828125-3.058593-6.828125-6.828124 0-3.769532 3.054688-6.828126 6.828125-6.828126h40.960937c3.773438 0 6.824219 3.058594 6.824219 6.828126 0 3.769531-3.050781 6.828124-6.824219 6.828124zm0 0" fill="#fd2647" data-original="#4c241d" style="" class=""/><path d="m211.976562 230.859375h-40.960937c-3.773437 0-6.828125-3.058594-6.828125-6.828125s3.054688-6.824219 6.828125-6.824219h40.960937c3.773438 0 6.824219 3.054688 6.824219 6.824219s-3.050781 6.828125-6.824219 6.828125zm0 0" fill="#fd2647" data-original="#4c241d" style="" class=""/><path d="m321.203125 128.457031h-40.960937c-3.773438 0-6.828126-3.054687-6.828126-6.824219 0-3.769531 3.054688-6.828124 6.828126-6.828124h40.960937c3.773437 0 6.828125 3.058593 6.828125 6.828124 0 3.769532-3.054688 6.824219-6.828125 6.824219zm0 0" fill="#fd2647" data-original="#4c241d" style="" class=""/><path d="m321.203125 162.59375h-40.960937c-3.773438 0-6.828126-3.058594-6.828126-6.828125s3.054688-6.828125 6.828126-6.828125h40.960937c3.773437 0 6.828125 3.058594 6.828125 6.828125s-3.054688 6.828125-6.828125 6.828125zm0 0" fill="#fd2647" data-original="#4c241d" style="" class=""/><path d="m321.203125 196.726562h-40.960937c-3.773438 0-6.828126-3.058593-6.828126-6.828124 0-3.769532 3.054688-6.828126 6.828126-6.828126h40.960937c3.773437 0 6.828125 3.058594 6.828125 6.828126 0 3.769531-3.054688 6.828124-6.828125 6.828124zm0 0" fill="#fd2647" data-original="#4c241d" style="" class=""/><path d="m321.203125 230.859375h-40.960937c-3.773438 0-6.828126-3.058594-6.828126-6.828125s3.054688-6.824219 6.828126-6.824219h40.960937c3.773437 0 6.828125 3.054688 6.828125 6.824219s-3.054688 6.828125-6.828125 6.828125zm0 0" fill="#fd2647" data-original="#4c241d" style="" class=""/><path d="m338.464844 73.84375c-3.722656 0-6.769532-2.984375-6.828125-6.71875-.09375-6.175781-2.074219-11.960938-5.714844-16.726562-3.605469-4.722657-8.613281-8.132813-14.476563-9.863282-3.613281-1.066406-5.679687-4.863281-4.613281-8.480468 1.074219-3.609376 4.867188-5.671876 8.480469-4.613282 8.660156 2.554688 16.085938 7.628906 21.464844 14.667969 5.425781 7.105469 8.375 15.679687 8.511718 24.800781.0625 3.769532-2.949218 6.875-6.71875 6.933594-.03125 0-.074218 0-.105468 0zm0 0" fill="#fd2647" data-original="#4c241d" style="" class=""/><path d="m365.917969 73.84375c-3.746094 0-6.792969-3.015625-6.828125-6.765625-.105469-12.195313-4.039063-23.714844-11.386719-33.324219-7.824219-10.242187-18.59375-17.257812-31.140625-20.292968-3.660156-.886719-5.914062-4.578126-5.023438-8.242188.886719-3.667969 4.578126-5.902344 8.238282-5.03125 15.394531 3.730469 29.167968 12.703125 38.78125 25.277344 9.144531 11.980468 14.050781 26.324218 14.183594 41.492187.035156 3.773438-3 6.855469-6.765626 6.886719-.019531 0-.039062 0-.058593 0zm0 0" fill="#fd2647" data-original="#4c241d" style="" class=""/><path d="m91.804688 39.359375c-1.746094 0-3.496094-.667969-4.828126-2-2.667968-2.664063-2.667968-6.988281 0-9.652344l20.121094-20.128906c2.664063-2.664063 6.984375-2.664063 9.652344 0 2.664062 2.664063 2.664062 6.988281 0 9.652344l-20.121094 20.128906c-1.332031 1.332031-3.078125 2-4.824218 2zm0 0" fill="#fd2647" data-original="#4c241d" style="" class=""/><path d="m51.550781 79.609375c-1.746093 0-3.496093-.667969-4.828125-2-2.664062-2.667969-2.664062-6.988281 0-9.652344l20.125-20.128906c2.667969-2.664063 6.988282-2.664063 9.65625 0 2.664063 2.667969 2.664063 6.988281 0 9.652344l-20.128906 20.128906c-1.332031 1.332031-3.078125 2-4.824219 2zm0 0" fill="#fd2647" data-original="#4c241d" style="" class=""/><path d="m71.675781 39.359375c-1.746093 0-3.492187-.667969-4.828125-2l-20.125-20.125c-2.664062-2.667969-2.664062-6.988281 0-9.652344 2.667969-2.667969 6.988282-2.667969 9.652344 0l20.128906 20.125c2.664063 2.667969 2.664063 6.988281 0 9.652344-1.335937 1.332031-3.082031 2-4.828125 2zm0 0" fill="#fd2647" data-original="#4c241d" style="" class=""/><path d="m111.921875 79.609375c-1.746094 0-3.492187-.667969-4.824219-2l-20.121094-20.125c-2.667968-2.667969-2.667968-6.992187 0-9.652344 2.664063-2.667969 6.988282-2.667969 9.652344 0l20.121094 20.125c2.664062 2.667969 2.664062 6.992188 0 9.652344-1.332031 1.332031-3.078125 2-4.828125 2zm0 0" fill="#fd2647" data-original="#4c241d" style="" class=""/><path d="m27.65625 258.164062c-15.058594 0-27.308594-12.25-27.308594-27.304687 0-15.058594 12.25-27.308594 27.308594-27.308594s27.304688 12.25 27.304688 27.308594c0 15.054687-12.242188 27.304687-27.304688 27.304687zm0-40.957031c-7.527344 0-13.652344 6.121094-13.652344 13.652344 0 7.527344 6.125 13.652344 13.652344 13.652344s13.652344-6.125 13.652344-13.652344c0-7.53125-6.125-13.652344-13.652344-13.652344zm0 0" fill="#fd2647" data-original="#4c241d" style="" class=""/><path d="m102.75 152.351562c0 5.65625-4.585938 10.242188-10.242188 10.242188-5.652343 0-10.238281-4.585938-10.238281-10.242188s4.585938-10.238281 10.238281-10.238281c5.65625 0 10.242188 4.582031 10.242188 10.238281zm0 0" fill="#fd2647" data-original="#4c241d" style="" class=""/></g></g></svg>
